<?xml version="1.0" encoding="UTF-8"?>
<svg id="Layer_1" data-name="Layer 1" xmlns="http://www.w3.org/2000/svg" viewBox="0 0 378.77 177.25">
  <defs>
    <style>
      .cls-1 {
        fill: #265da4;
      }

      .cls-2 {
        fill: #245da4;
      }

      .cls-3 {
        fill: #ff00c9;
      }
    </style>
  </defs>
  <g>
    <path class="cls-2" d="M261.2,73.66l5.64-26.58-10.54,14.15h-7.97l-4.62-14.84-5.82,27.27h-12.28l10.5-49.52h13.02l6.11,19.29c.14-.2.28-.4.42-.59l14.05-18.7h14.36l-10.53,49.52h-12.34Z"/>
    <path class="cls-1" d="M275.07,75.55h-16.2l4.33-20.42-5.95,7.99h-10.31l-2.89-9.27-4.63,21.7h-16.14l11.3-53.3h15.94l5.42,17.09,12.84-17.09h17.63l-11.34,53.3ZM263.53,71.77h8.48l9.73-45.74h-11.08l-13.48,17.95c-.12.17-.25.35-.39.54l-2.19,3.13-6.85-21.62h-10.11l-9.7,45.74h8.42l7.01-32.83,6.35,20.4h5.63l15.12-20.3-6.94,32.73Z"/>
  </g>
  <g>
    <path class="cls-2" d="M292.01,74.43c-3.83,0-6.88-1.4-9.05-4.17-2.03-2.58-3.06-6.08-3.06-10.41s1.01-8.32,3-12.14c2.03-3.9,4.81-6.86,8.27-8.79,2.06-1.15,4.32-1.96,6.78-2.42h-6.48l14.14-15.26h14.64l-15.84,14.84c3.18.12,6.87.63,10.98,1.52l2.52.54-4.89,23.18c-.29,1.38-.56,3.11-.8,5.16-.23,2.02-.35,3.57-.35,4.6v2.59h-12.76v-1.42c-.76.53-1.55.97-2.38,1.31-1.41.58-2.99.88-4.7.88ZM302.18,46.82c-1.83,0-3.39.45-4.75,1.39-1.38.94-2.53,2.45-3.42,4.48-.94,2.15-1.42,4.43-1.42,6.78,0,1.48.25,2.62.72,3.28.2.29.49.59,1.36.59.51,0,2.06,0,3.96-2.48,1.54-2.01,2.7-4.78,3.44-8.22l1.24-5.8c-.36-.02-.74-.03-1.12-.03Z"/>
    <path class="cls-1" d="M292.01,76.32c-4.44,0-7.99-1.65-10.54-4.9-2.3-2.92-3.46-6.82-3.46-11.58s1.08-8.92,3.21-13.01c1.85-3.54,4.27-6.38,7.23-8.45h-1.32l17.64-19.04h20.25l-16.22,15.19c2.17.26,4.5.67,6.98,1.2l4.36.94-5.28,25.01c-.28,1.32-.54,3-.77,4.99-.23,1.95-.34,3.43-.34,4.38v4.48h-16.53v-.16c-1.58.62-3.32.93-5.2.93ZM295.78,34.61h2.16l.35,3.75c-2.25.42-4.34,1.16-6.2,2.21-3.13,1.75-5.66,4.45-7.51,8.02-1.85,3.55-2.79,7.34-2.79,11.27s.89,7.01,2.65,9.25c1.83,2.32,4.3,3.45,7.57,3.45,1.47,0,2.81-.25,3.98-.73.7-.29,1.38-.67,2.03-1.12l2.97-2.07v3.15h8.98v-.7c0-1.1.12-2.72.37-4.82.24-2.1.52-3.89.82-5.33l4.5-21.34-.68-.15c-4-.86-7.58-1.36-10.65-1.47l-4.53-.17,15.66-14.67h-9.04l-10.64,11.48ZM294.67,65.24c-1.3,0-2.25-.45-2.91-1.39-.7-1-1.06-2.47-1.06-4.37,0-2.61.53-5.15,1.58-7.54,1.03-2.36,2.41-4.14,4.08-5.28,1.69-1.16,3.59-1.72,5.82-1.72.42,0,.84.01,1.24.04l2.2.13-1.71,7.95c-.8,3.71-2.07,6.73-3.78,8.97-1.63,2.14-3.47,3.22-5.46,3.22ZM300.95,48.8c-.92.14-1.72.46-2.46.97-1.08.74-2.01,1.98-2.75,3.68-.84,1.91-1.26,3.94-1.26,6.03,0,1.02.14,1.65.26,1.98.73-.04,1.53-.62,2.38-1.74,1.37-1.79,2.41-4.3,3.09-7.46l.74-3.46Z"/>
  </g>
  <g>
    <path class="cls-2" d="M325.58,74.43c-1.73,0-3.57-.19-5.49-.58-2.02-.4-3.57-.9-4.73-1.52l-1.7-.91,2.35-11.61,3.15,1.89c.95.57,2.11,1.06,3.46,1.47,1.3.4,2.56.6,3.74.6,1.71,0,2.33-.37,2.47-.48.18-.14.32-.28.32-.76,0-.29-.07-.48-.25-.69-.18-.2-.83-.8-2.84-1.89-2.68-1.45-4.62-2.99-5.92-4.7-1.4-1.85-2.12-4.04-2.12-6.51s.65-4.67,1.92-6.62c1.27-1.95,3.09-3.47,5.42-4.54,2.22-1.02,4.84-1.53,7.81-1.53,1.7,0,3.39.16,5.01.46,1.64.31,3.06.71,4.22,1.18l2.01.82-2.51,11.7-3.1-1.83c-.73-.43-1.64-.82-2.69-1.15-.99-.31-1.98-.47-2.95-.47-1.48,0-2.03.33-2.2.48-.24.2-.38.41-.38.86,0,.38.1.54.26.71.36.35,1.09.93,2.47,1.69h.03c3.04,1.72,5.11,3.37,6.32,5.06,1.3,1.8,1.96,3.93,1.96,6.31,0,2.53-.68,4.79-2.03,6.71-1.32,1.88-3.23,3.36-5.67,4.39-2.31.98-5.12,1.47-8.34,1.47Z"/>
    <path class="cls-1" d="M325.58,76.32c-1.85,0-3.82-.21-5.86-.61-2.2-.44-3.92-1-5.25-1.71l-2.94-1.57,3.15-15.61,5.44,3.26c.82.49,1.84.92,3.04,1.29.84.26,1.65.42,2.42.48-.13-.08-.28-.15-.43-.24-2.92-1.58-5.06-3.29-6.52-5.22-1.66-2.19-2.5-4.76-2.5-7.65s.75-5.39,2.23-7.65c1.46-2.25,3.56-4.01,6.21-5.23,2.47-1.13,5.36-1.71,8.59-1.71,1.82,0,3.62.17,5.36.5,1.76.33,3.3.77,4.59,1.29l3.47,1.42-3.39,15.81-5.35-3.16c-.61-.36-1.38-.69-2.3-.97-.53-.17-1.05-.28-1.57-.34.08.05.17.09.25.14l.05.02c3.29,1.85,5.55,3.67,6.93,5.59,1.53,2.13,2.31,4.63,2.31,7.41,0,2.93-.8,5.55-2.37,7.8-1.53,2.18-3.71,3.87-6.48,5.05-2.55,1.08-5.6,1.62-9.07,1.62ZM315.8,70.42l.46.25c1,.53,2.38.97,4.21,1.34,1.79.36,3.51.54,5.12.54,2.97,0,5.52-.45,7.6-1.32,2.11-.89,3.75-2.15,4.86-3.74,1.12-1.6,1.69-3.49,1.69-5.63,0-1.98-.54-3.73-1.6-5.2-1.05-1.46-2.92-2.93-5.71-4.5h-.02c-1.25-.69-2.22-1.36-2.87-2-.56-.55-.84-1.22-.84-2.06,0-.95.34-1.7,1.04-2.3.72-.62,1.87-.93,3.42-.93,1.16,0,2.34.19,3.52.56,1.19.37,2.23.82,3.09,1.33l.84.5,1.63-7.59-.54-.22c-1.05-.43-2.35-.79-3.86-1.08-1.51-.28-3.08-.43-4.66-.43-2.69,0-5.05.46-7.02,1.36-2,.92-3.56,2.22-4.62,3.86-1.07,1.64-1.61,3.53-1.61,5.59s.58,3.85,1.73,5.37c1.13,1.5,2.87,2.87,5.31,4.18,1.67.91,2.8,1.68,3.35,2.29.49.55.73,1.19.73,1.95,0,.97-.35,1.71-1.06,2.26-.75.58-1.97.88-3.62.88-1.37,0-2.81-.23-4.29-.68-1.49-.45-2.8-1.01-3.88-1.66l-.85-.51-1.54,7.61ZM332.04,48.78h0Z"/>
  </g>
  <g>
    <path class="cls-2" d="M112.56,50.48c0,3.75-.82,7.26-2.46,10.55-1.64,3.29-3.89,5.82-6.75,7.61-2.86,1.78-6.06,2.68-9.6,2.68-2.04,0-3.99-.29-5.83-.87l-3.04,14.34h-7.3l7.45-35.17c.24-1.04.5-2.62.77-4.72.27-2.1.44-3.81.5-5.11h7.18c0,.52-.08,1.45-.24,2.78-.16,1.33-.3,2.36-.42,3.08h.12c2.75-4.41,6.23-6.61,10.46-6.61,2.91,0,5.16,1.02,6.76,3.07,1.6,2.04,2.4,4.84,2.4,8.39ZM105.28,51.14c0-2.12-.41-3.72-1.23-4.78-.82-1.06-1.99-1.59-3.52-1.59-1.4,0-2.76.51-4.06,1.53-1.3,1.02-2.48,2.55-3.53,4.57-1.05,2.02-1.8,4.09-2.24,6.19l-1.74,8c.42.16,1.15.34,2.19.53,1.04.19,1.96.29,2.77.29,2.14,0,4.08-.67,5.82-2.01,1.73-1.34,3.09-3.16,4.07-5.46.98-2.29,1.47-4.71,1.47-7.26Z"/>
    <path class="cls-2" d="M136.7,45.37h-7.48l-2.95,13.92c-.36,1.74-.54,2.92-.54,3.52,0,.92.21,1.59.63,2,.42.41,1.11.62,2.07.62s2.32-.36,4.21-1.08l-1.2,5.68c-2,.78-3.99,1.17-5.95,1.17-4.75,0-7.12-2.31-7.12-6.94,0-1.16.21-2.69.63-4.57l3.01-14.31h-4.93l1.32-5.59h4.78l1.59-7.36,7.64-2.01-1.95,9.38h7.54l-1.29,5.59Z"/>
    <path class="cls-2" d="M145.59,71.07c-2.2,0-3.88-.56-5.03-1.67-1.15-1.11-1.73-2.7-1.73-4.76,0-1.04.11-2.06.33-3.07l4.48-21.79h7.3l-4.09,19.39c-.42,2-.63,3.3-.63,3.88,0,1.52.87,2.28,2.62,2.28,1.02,0,1.93-.16,2.74-.48l-1.14,5.53c-1.72.46-3.34.69-4.84.69ZM153.77,29.35c0,1.2-.43,2.2-1.29,2.99-.86.79-1.91,1.19-3.16,1.19s-2.22-.36-3.05-1.08c-.83-.72-1.25-1.67-1.25-2.86s.44-2.21,1.32-2.98c.88-.76,1.94-1.14,3.19-1.14,1.16,0,2.16.37,2.99,1.1.83.73,1.25,1.66,1.25,2.78Z"/>
    <path class="cls-2" d="M180.4,47.05c-.76-.64-1.71-1.18-2.84-1.62-1.13-.44-2.38-.66-3.74-.66-1.9,0-3.64.56-5.22,1.68-1.57,1.12-2.86,2.74-3.86,4.85-1,2.11-1.5,4.33-1.5,6.66,0,2.49.56,4.37,1.67,5.67,1.11,1.29,2.7,1.94,4.76,1.94,1.24,0,2.56-.25,3.95-.75,1.39-.5,2.64-1.11,3.74-1.83l-1.26,6.1c-2.85,1.48-5.67,2.22-8.48,2.22-3.65,0-6.5-1.12-8.57-3.35-2.06-2.23-3.1-5.33-3.1-9.27,0-3.57.77-6.88,2.31-9.93,1.54-3.06,3.69-5.44,6.45-7.15,2.76-1.71,5.88-2.57,9.36-2.57,1.46,0,2.92.18,4.36.53,1.44.35,2.56.8,3.37,1.34l-1.41,6.16Z"/>
    <path class="cls-2" d="M209.62,70.56h-7.36c0-.5.06-1.42.18-2.75.12-1.33.24-2.36.36-3.08h-.12c-1.26,1.84-2.35,3.18-3.26,4.01-.91.83-1.9,1.47-2.96,1.91-1.06.44-2.26.66-3.61.66-2.93,0-5.2-1.03-6.82-3.1-1.62-2.06-2.43-4.92-2.43-8.57s.88-7.27,2.63-10.64c1.75-3.37,4.1-5.87,7.03-7.51,2.94-1.64,6.36-2.46,10.27-2.46,3.23,0,7.06.48,11.51,1.44l-4.24,20.08c-.3,1.42-.57,3.17-.81,5.25-.24,2.07-.36,3.66-.36,4.76ZM206.85,44.92c-1.24-.3-2.62-.45-4.12-.45-2.28,0-4.3.6-6.04,1.79-1.74,1.19-3.15,3-4.21,5.43-1.06,2.42-1.59,4.96-1.59,7.61,0,2,.39,3.55,1.16,4.64.77,1.09,1.9,1.64,3.38,1.64,2.16,0,4.11-1.13,5.85-3.4,1.73-2.26,3-5.26,3.8-8.99l1.77-8.27Z"/>
  </g>
  <g>
    <path class="cls-2" d="M129.46,164.72l-21.17-53.35c-.28-.65-.37-1.21-.37-2.05,0-2.98,2.43-5.41,5.41-5.41,2.7,0,4.38,1.68,4.94,3.17l16.23,43,16.23-43c.56-1.4,2.24-3.17,4.94-3.17,2.98,0,5.41,2.43,5.41,5.41,0,.84-.09,1.4-.37,2.05l-21.17,53.35c-.75,1.87-2.24,3.45-5.04,3.45s-4.29-1.59-5.04-3.45Z"/>
    <path class="cls-2" d="M179.27,162.76c0,2.98-2.43,5.41-5.41,5.41s-5.41-2.42-5.41-5.41v-53.44c0-2.98,2.42-5.41,5.41-5.41s5.41,2.43,5.41,5.41v53.44Z"/>
    <path class="cls-2" d="M211.91,113.05c-7.74,0-10.63,3.64-10.63,7.37,0,12.22,34.04,6.53,34.04,29.85,0,11.38-8.02,18.47-23.41,18.47-11.1,0-19.96-5.5-23.6-11.38-.47-.75-.75-1.68-.75-2.61,0-2.8,2.24-5.04,4.94-5.04,2.05,0,3.17,1.12,4.1,2.05,3.92,3.92,8.86,7.09,15.3,7.09,8.49,0,12.59-2.8,12.59-8.58,0-13.62-34.04-7.37-34.04-29.85,0-9.23,6.62-17.07,21.45-17.07,9.33,0,17.44,3.45,21.17,8.77.56.84.93,1.87.93,2.98,0,2.7-2.24,4.94-5.04,4.94-1.31,0-2.61-.75-4.01-2.05-2.89-2.8-7.74-4.94-13.06-4.94Z"/>
    <path class="cls-2" d="M254.72,162.76c0,2.98-2.43,5.41-5.41,5.41s-5.41-2.42-5.41-5.41v-53.44c0-2.98,2.42-5.41,5.41-5.41s5.41,2.43,5.41,5.41v53.44Z"/>
    <path class="cls-2" d="M263.49,136.09c0-22.1,10.73-32.74,29.57-32.74s29.57,10.63,29.57,32.74-10.73,32.64-29.57,32.64-29.57-10.82-29.57-32.64ZM274.68,136.09c0,15.39,6.06,22.94,18.37,22.94s18.37-7.55,18.37-22.94-6.06-23.04-18.37-23.04-18.37,7.55-18.37,23.04Z"/>
    <path class="cls-2" d="M378.77,109.23v53.63c0,2.89-2.42,5.32-5.32,5.32-1.77,0-3.45-.93-4.38-2.33l-27.51-39.73v36.75c0,2.89-2.43,5.32-5.32,5.32s-5.32-2.42-5.32-5.32v-53.63c0-2.89,2.43-5.32,5.32-5.32,1.87,0,3.36.84,4.29,2.24l27.61,40.01v-36.93c0-2.89,2.42-5.32,5.32-5.32s5.32,2.43,5.32,5.32Z"/>
  </g>
  <rect class="cls-2" x="276.1" y="96.63" width="32.7" height="3.02" rx=".4" ry=".4"/>
  <rect class="cls-2" x="23.21" y="0" width="32.7" height="3.02" rx=".4" ry=".4"/>
  <path class="cls-2" d="M57.02,77.41c2.03,1.01,8.25,4.43,12.02,12.01,3.58,7.2,2.8,13.86,2.43,16.15l9.72,1.45c.45-3.09,1.61-13.69-4.85-24.29-4.88-7.99-11.6-11.9-14.66-13.44l-4.65,8.12Z"/>
  <path class="cls-2" d="M110.46,137.69c0,21.85-17.71,39.56-39.56,39.56s-39.56-17.71-39.56-39.56,17.71-39.56,39.56-39.56,39.56,17.71,39.56,39.56ZM70.91,106.47c-17.25,0-31.23,13.98-31.23,31.23s13.98,31.23,31.23,31.23,31.23-13.98,31.23-31.23-13.98-31.23-31.23-31.23Z"/>
  <path class="cls-2" d="M79.11,46.49c0,21.85-17.71,39.56-39.56,39.56S0,68.34,0,46.49,17.71,6.93,39.56,6.93s39.56,17.71,39.56,39.56ZM39.56,15.26c-17.25,0-31.23,13.98-31.23,31.23s13.98,31.23,31.23,31.23,31.23-13.98,31.23-31.23-13.98-31.23-31.23-31.23Z"/>
  <path class="cls-3" d="M271.45,71.07h-7.05l5.97-28.14c.58-2.6,1.36-5.65,2.35-9.15h-.19c-1.05,2.33-2.71,5-4.98,8.01l-12.55,16.85h-4.76l-5.07-16.29c-.37-1.13-.71-2.52-1.02-4.17-.31-1.65-.48-3.11-.53-4.39h-.22c-.72,4.56-1.26,7.62-1.61,9.18l-6,28.11h-6.99l9.4-44.34h9.03l5.78,18.24c.62,1.96.98,3.8,1.08,5.53h.15c1.13-2.47,2.3-4.51,3.49-6.12l13.26-17.65h9.86l-9.43,44.34Z"/>
  <path class="cls-3" d="M309.26,71.07h-7.58c0-.52.06-1.46.19-2.83.12-1.37.25-2.43.37-3.17h-.12c-1.3,1.9-2.42,3.27-3.35,4.13-.94.86-1.95,1.51-3.05,1.96-1.09.45-2.33.68-3.71.68-3.01,0-5.35-1.06-7.02-3.18-1.67-2.12-2.5-5.06-2.5-8.81s.9-7.48,2.71-10.95c1.8-3.46,4.22-6.04,7.24-7.73,3.02-1.69,6.54-2.54,10.56-2.54,3.32,0,7.27.49,11.84,1.48l-4.36,20.65c-.31,1.46-.59,3.26-.83,5.4-.25,2.13-.37,3.77-.37,4.9ZM306.41,44.7c-1.28-.31-2.69-.46-4.24-.46-2.35,0-4.42.61-6.21,1.84-1.79,1.23-3.24,3.09-4.33,5.58-1.09,2.49-1.64,5.1-1.64,7.82,0,2.06.4,3.65,1.19,4.78.79,1.12,1.95,1.69,3.48,1.69,2.23,0,4.23-1.16,6.01-3.49,1.78-2.33,3.09-5.41,3.91-9.24l1.82-8.5ZM302.92,33.9h-5.53l9.34-10.08h6.96l-10.76,10.08Z"/>
  <path class="cls-3" d="M340.12,46.15c-.91-.54-1.98-1-3.23-1.39-1.25-.39-2.49-.59-3.73-.59-1.73,0-3.03.37-3.88,1.1-.86.73-1.28,1.67-1.28,2.83,0,1.03.35,1.89,1.05,2.57.7.68,1.71,1.38,3.03,2.1,2.68,1.5,4.51,2.94,5.49,4.3.98,1.36,1.47,2.96,1.47,4.79,0,2-.52,3.74-1.56,5.23-1.04,1.48-2.56,2.65-4.56,3.49-2,.85-4.44,1.27-7.33,1.27-1.57,0-3.23-.18-4.98-.53-1.75-.35-3.09-.77-4.02-1.27l1.24-6.12c1.13.68,2.48,1.26,4.03,1.73,1.56.47,3.06.71,4.5.71,1.81,0,3.16-.34,4.05-1.02.89-.68,1.33-1.62,1.33-2.81,0-.93-.3-1.73-.91-2.41-.61-.68-1.79-1.49-3.54-2.44-2.33-1.26-4.02-2.59-5.09-3.99-1.06-1.4-1.59-3.05-1.59-4.95s.5-3.67,1.5-5.21c1-1.54,2.44-2.74,4.33-3.6,1.89-.87,4.13-1.3,6.73-1.3,1.55,0,3.06.14,4.53.42,1.47.28,2.72.62,3.73,1.04l-1.3,6.06Z"/>
</svg>